<svg xmlns="http://www.w3.org/2000/svg" version="1.1" xmlns:xlink="http://www.w3.org/1999/xlink" xmlns:svgjs="http://svgjs.com/svgjs" width="1440" height="560" preserveAspectRatio="none" viewBox="0 0 1440 560"><g mask="url(&quot;#SvgjsMask1459&quot;)" fill="none"><rect width="1440" height="560" x="0" y="0" fill="url(#SvgjsLinearGradient1460)"></rect><path d="M 0,175 C 96,152 288,72.4 480,60 C 672,47.6 768,109 960,113 C 1152,117 1344,86.6 1440,80L1440 560L0 560z" fill="rgba(245, 188, 10, 1)"></path><path d="M 0,227 C 36,238 108,277.4 180,282 C 252,286.6 288,248.2 360,250 C 432,251.8 468,297.4 540,291 C 612,284.6 648,213.6 720,218 C 792,222.4 828,308 900,313 C 972,318 1008,245.8 1080,243 C 1152,240.2 1188,299.4 1260,299 C 1332,298.6 1404,252.6 1440,241L1440 560L0 560z" fill="rgba(255, 241, 46, 0.86)"></path><path d="M 0,412 C 41.2,440.8 123.6,562 206,556 C 288.4,550 329.6,395 412,382 C 494.4,369 535.6,484.6 618,491 C 700.4,497.4 741.6,401.4 824,414 C 906.4,426.6 947.6,553.6 1030,554 C 1112.4,554.4 1154,432.4 1236,416 C 1318,399.6 1399.2,460.8 1440,472L1440 560L0 560z" fill="rgba(65, 145, 230, 1)"></path></g><defs><mask id="SvgjsMask1459"><rect width="1440" height="560" fill="#ffffff"></rect></mask><linearGradient x1="50%" y1="100%" x2="50%" y2="0%" gradientUnits="userSpaceOnUse" id="SvgjsLinearGradient1460"><stop stop-color="rgba(14, 42, 71, 1)" offset="0.35"></stop><stop stop-color="rgba(0, 192, 255, 1)" offset="1"></stop></linearGradient></defs></svg>